<svg xmlns="http://www.w3.org/2000/svg" xmlns:xlink="http://www.w3.org/1999/xlink" preserveAspectRatio="xMidYMid" width="56" height="56" viewBox="0 0 56 56">
  <defs>
    <style>
      .cls-1 {
        fill: #ffc857;
        fill-rule: evenodd;
      }
    </style>
  </defs>
  <path d="M36.747,29.749 L19.251,29.749 C18.285,29.749 17.501,30.533 17.501,31.498 C17.501,32.465 18.285,33.248 19.251,33.248 L36.747,33.248 C37.714,33.248 38.497,32.465 38.497,31.498 C38.497,30.533 37.714,29.749 36.747,29.749 ZM40.247,19.251 L15.751,19.251 C14.786,19.251 14.002,20.034 14.002,21.001 C14.002,21.966 14.786,22.750 15.751,22.750 L40.247,22.750 C41.213,22.750 41.996,21.966 41.996,21.001 C41.996,20.034 41.213,19.251 40.247,19.251 ZM27.999,0.004 C12.539,0.004 0.004,10.971 0.004,24.500 C0.004,32.231 4.107,39.115 10.502,43.605 L10.502,55.994 L22.766,48.553 C24.463,48.833 26.209,48.996 27.999,48.996 C43.461,48.996 55.994,38.028 55.994,24.500 C55.994,10.971 43.461,0.004 27.999,0.004 ZM27.999,45.496 C25.956,45.496 23.982,45.258 22.085,44.854 L13.848,49.806 L13.958,41.690 C7.643,37.892 3.504,31.614 3.504,24.500 C3.504,12.905 14.470,3.504 27.999,3.504 C41.527,3.504 52.495,12.905 52.495,24.500 C52.495,36.095 41.527,45.496 27.999,45.496 Z" class="cls-1"/>
</svg>
