<svg xmlns="http://www.w3.org/2000/svg" xmlns:xlink="http://www.w3.org/1999/xlink" preserveAspectRatio="xMidYMid" width="53" height="38" viewBox="0 0 53 38">
  <defs>
    <style>
      .cls-1 {
        fill: #e1e1e4;
        fill-rule: evenodd;
      }
    </style>
  </defs>
  <path d="M48.728,38.003 L4.272,38.003 C1.917,38.003 -0.001,36.071 -0.001,33.694 L-0.001,4.306 C-0.001,1.929 1.917,-0.004 4.272,-0.004 L48.728,-0.004 C51.083,-0.004 53.001,1.929 53.001,4.306 L53.001,33.694 C53.001,36.071 51.083,38.003 48.728,38.003 ZM1.708,33.694 C1.708,35.119 2.859,36.279 4.272,36.279 L48.728,36.279 C50.141,36.279 51.292,35.119 51.292,33.694 L51.292,4.306 C51.292,3.956 51.221,3.622 51.095,3.316 L33.714,18.603 L43.498,27.862 C43.842,28.186 43.859,28.732 43.536,29.079 C43.367,29.260 43.141,29.351 42.912,29.351 C42.702,29.351 42.492,29.274 42.328,29.117 L32.494,19.811 C32.468,19.787 32.457,19.754 32.435,19.728 L29.638,22.188 C28.771,22.950 27.637,23.331 26.500,23.331 C25.364,23.331 24.227,22.950 23.362,22.190 L20.566,19.729 C20.544,19.755 20.533,19.787 20.508,19.811 L10.671,29.117 C10.507,29.274 10.296,29.351 10.086,29.351 C9.859,29.351 9.632,29.260 9.462,29.079 C9.139,28.732 9.156,28.186 9.500,27.862 L19.287,18.604 L1.907,3.311 C1.780,3.618 1.708,3.954 1.708,4.306 L1.708,33.694 ZM4.272,1.720 C3.833,1.720 3.425,1.843 3.063,2.040 L24.485,20.888 C25.577,21.849 27.423,21.849 28.513,20.888 L49.941,2.042 C49.578,1.844 49.169,1.720 48.728,1.720 L4.272,1.720 Z" class="cls-1"/>
</svg>
