<svg xmlns="http://www.w3.org/2000/svg" xmlns:xlink="http://www.w3.org/1999/xlink" preserveAspectRatio="xMidYMid" width="57" height="57" viewBox="0 0 57 57">
  <defs>
    <style>
      .cls-1 {
        fill: #ffc857;
        fill-rule: evenodd;
      }
    </style>
  </defs>
  <path d="M50.928,28.628 L50.928,26.197 L57.000,26.197 L57.000,28.628 L50.928,28.628 ZM43.518,11.214 L47.752,7.131 L49.497,8.864 L45.251,12.947 L43.518,11.214 ZM40.284,35.538 C37.678,38.202 36.317,41.971 36.317,46.089 L36.305,52.393 C36.305,54.941 34.200,57.000 31.594,57.000 L25.522,57.000 C22.916,57.000 20.811,54.941 20.811,52.393 L20.823,46.089 C20.823,42.087 19.334,38.202 16.611,35.293 C13.517,31.897 12.028,27.406 12.645,22.800 C13.633,15.890 19.869,9.457 28.500,9.457 C37.294,9.457 44.611,16.367 44.623,24.987 C44.623,28.872 43.134,32.630 40.284,35.538 ZM23.405,52.393 C23.405,53.615 24.394,54.580 25.638,54.580 L31.711,54.580 C32.955,54.580 33.944,53.603 33.944,52.393 L33.932,52.393 L33.932,49.602 L23.405,49.602 L23.405,52.393 ZM28.500,11.889 C21.276,11.889 15.867,17.356 14.994,23.172 C14.506,27.058 15.623,30.815 18.345,33.723 C21.439,37.120 23.300,41.598 23.300,46.089 L23.300,47.182 L33.828,47.182 L33.828,46.089 C33.828,41.354 35.445,36.992 38.539,33.839 C40.889,31.408 42.133,28.256 42.133,24.987 C42.133,17.833 36.061,11.889 28.500,11.889 ZM27.255,-0.000 L29.733,-0.000 L29.733,5.816 L27.255,5.816 L27.255,-0.000 ZM7.457,8.852 L9.201,7.119 L13.436,11.202 L11.702,12.935 L7.457,8.852 ZM-0.000,26.197 L6.072,26.197 L6.072,28.628 L-0.000,28.628 L-0.000,26.197 Z" class="cls-1"/>
</svg>
