<svg xmlns="http://www.w3.org/2000/svg" xmlns:xlink="http://www.w3.org/1999/xlink" preserveAspectRatio="xMidYMid" width="28.97" height="55.97" viewBox="0 0 28.97 55.97">
  <defs>
    <style>
      .cls-1 {
        fill: #ffc857;
        fill-rule: evenodd;
      }
    </style>
  </defs>
  <path d="M3.294,55.973 C3.144,55.973 2.994,55.936 2.859,55.858 C2.498,55.651 2.340,55.222 2.483,54.836 L11.492,30.492 L0.603,27.439 C0.322,27.361 0.099,27.147 0.013,26.872 C-0.072,26.598 -0.011,26.298 0.179,26.077 L22.266,0.287 C22.528,-0.020 22.973,-0.099 23.332,0.085 C23.690,0.274 23.868,0.686 23.754,1.069 L17.386,22.781 L28.334,25.852 C28.617,25.930 28.839,26.145 28.924,26.421 C29.010,26.698 28.944,26.999 28.753,27.218 L3.949,55.678 C3.780,55.870 3.539,55.973 3.294,55.973 ZM2.355,26.167 L12.855,29.108 C13.086,29.173 13.277,29.329 13.388,29.537 C13.496,29.748 13.512,29.992 13.429,30.212 L5.726,51.028 L26.568,27.115 L16.082,24.177 C15.861,24.116 15.675,23.970 15.563,23.773 C15.451,23.577 15.425,23.344 15.489,23.127 L20.974,4.429 L2.355,26.167 Z" class="cls-1"/>
</svg>
