<svg xmlns="http://www.w3.org/2000/svg" xmlns:xlink="http://www.w3.org/1999/xlink" preserveAspectRatio="xMidYMid" width="28" height="49" viewBox="0 0 28 49">
  <defs>
    <style>
      .cls-1 {
        fill: #e1e1e4;
        fill-rule: evenodd;
      }
    </style>
  </defs>
  <path d="M24.754,-0.000 L3.245,-0.000 C1.453,-0.000 -0.013,1.488 -0.013,3.310 L-0.013,45.689 C-0.013,47.510 1.453,49.000 3.245,49.000 L24.754,49.000 C26.546,49.000 28.013,47.512 28.013,45.690 L28.013,3.310 C28.013,1.488 26.546,-0.000 24.754,-0.000 ZM10.559,2.386 L17.441,2.386 C17.659,2.386 17.835,2.565 17.835,2.788 C17.835,3.008 17.659,3.188 17.441,3.188 L10.559,3.188 C10.342,3.188 10.165,3.008 10.165,2.788 C10.165,2.565 10.342,2.386 10.559,2.386 ZM14.000,47.346 C13.100,47.346 12.370,46.605 12.370,45.690 C12.370,44.775 13.100,44.036 14.000,44.036 C14.899,44.036 15.629,44.775 15.629,45.690 C15.629,46.605 14.899,47.346 14.000,47.346 ZM25.747,42.875 L2.254,42.875 L2.254,5.249 L25.747,5.249 L25.747,42.875 Z" class="cls-1"/>
</svg>
