<svg xmlns="http://www.w3.org/2000/svg" xmlns:xlink="http://www.w3.org/1999/xlink" preserveAspectRatio="xMidYMid" width="55" height="64" viewBox="0 0 55 64">
  <defs>
    <style>
      .cls-1 {
        fill: #e1e1e4;
        fill-rule: evenodd;
      }
    </style>
  </defs>
  <path d="M42.608,64.000 L12.392,64.000 C5.564,64.000 -0.000,58.438 -0.000,51.613 C-0.000,46.476 1.065,41.407 3.168,36.551 C4.845,32.692 7.174,28.953 10.090,25.454 C13.564,21.289 17.024,18.468 18.835,17.124 L11.514,6.067 C11.101,5.442 11.181,4.604 11.700,4.071 C14.189,1.517 16.732,0.319 19.713,0.319 C22.069,0.319 24.505,1.038 27.673,2.195 C27.913,2.289 28.152,2.328 28.432,2.328 C29.350,2.328 30.482,1.850 31.680,1.357 C33.197,0.718 34.941,-0.000 36.844,-0.000 C38.921,-0.000 40.784,0.838 42.541,2.555 C43.060,3.047 43.167,3.819 42.834,4.444 L36.046,17.031 C37.842,18.348 41.370,21.196 44.910,25.454 C47.839,28.953 50.155,32.692 51.832,36.551 C53.935,41.407 55.000,46.476 55.000,51.613 C55.000,58.438 49.436,64.000 42.608,64.000 ZM39.400,4.045 C38.308,3.273 37.443,3.167 36.831,3.167 C35.566,3.167 34.262,3.712 32.891,4.284 C31.467,4.883 29.976,5.495 28.419,5.495 C27.780,5.495 27.154,5.389 26.568,5.176 C23.733,4.125 21.603,3.486 19.713,3.486 C17.943,3.486 16.465,4.071 14.921,5.402 L21.883,15.913 L33.011,15.913 L39.400,4.045 ZM42.501,27.569 C38.615,22.872 34.675,19.945 33.463,19.107 L21.510,19.107 C20.312,19.958 16.359,22.872 12.472,27.569 C6.323,34.994 3.195,43.084 3.195,51.613 C3.195,56.682 7.321,60.807 12.392,60.807 L42.608,60.807 C47.679,60.807 51.805,56.682 51.779,51.613 C51.779,43.070 48.664,34.994 42.501,27.569 ZM25.996,40.170 L29.656,40.170 C32.744,40.170 35.260,42.684 35.260,45.771 C35.260,48.832 32.798,51.333 29.736,51.373 C29.723,51.373 29.710,51.373 29.696,51.373 L29.430,51.373 L29.430,53.648 C29.430,54.526 28.711,55.245 27.833,55.245 C26.954,55.245 26.235,54.526 26.235,53.648 L26.235,51.373 L23.094,51.373 C22.216,51.373 21.497,50.654 21.497,49.776 C21.497,48.898 22.216,48.180 23.094,48.180 L29.656,48.180 C30.987,48.180 32.066,47.102 32.066,45.771 C32.066,44.441 30.987,43.363 29.656,43.363 L25.996,43.363 C22.908,43.363 20.392,40.848 20.392,37.761 C20.392,34.674 22.908,32.160 25.996,32.160 L26.222,32.160 L26.222,29.938 C26.222,29.059 26.941,28.341 27.820,28.341 C28.698,28.341 29.417,29.059 29.417,29.938 L29.417,32.160 L32.438,32.160 C33.317,32.160 34.036,32.878 34.036,33.756 C34.036,34.634 33.317,35.353 32.438,35.353 L25.996,35.353 C24.665,35.353 23.587,36.431 23.587,37.761 C23.587,39.092 24.665,40.170 25.996,40.170 Z" class="cls-1"/>
</svg>
