<svg xmlns="http://www.w3.org/2000/svg" xmlns:xlink="http://www.w3.org/1999/xlink" preserveAspectRatio="xMidYMid" width="65" height="74" viewBox="0 0 65 74">
  <defs>
    <style>
      .cls-1 {
        fill: #ffc857;
        fill-rule: evenodd;
      }
    </style>
  </defs>
  <path d="M63.796,36.544 L63.796,58.484 C63.796,64.662 59.037,69.757 52.963,70.358 L52.963,74.000 L12.037,74.000 L12.037,70.358 C5.963,69.758 1.204,64.662 1.204,58.484 L1.204,36.544 C0.464,35.705 -0.000,34.620 -0.000,33.419 C-0.000,30.786 2.160,28.645 4.815,28.645 C7.470,28.645 9.630,30.786 9.630,33.419 C9.630,34.620 9.166,35.705 8.426,36.544 L8.426,47.552 C9.551,47.063 10.763,46.736 12.037,46.609 L12.037,44.161 L52.963,44.161 L52.963,46.609 C54.235,46.735 55.449,47.063 56.574,47.552 L56.574,36.544 C55.834,35.705 55.370,34.620 55.370,33.419 C55.370,30.786 57.530,28.645 60.185,28.645 C62.840,28.645 65.000,30.786 65.000,33.419 C65.000,34.620 64.536,35.705 63.796,36.544 ZM3.611,51.354 C4.304,50.436 5.124,49.623 6.050,48.935 L6.018,48.935 L6.018,38.024 C5.631,38.124 5.232,38.194 4.815,38.194 C4.397,38.194 3.997,38.124 3.611,38.024 L3.611,51.354 ZM4.815,31.032 C3.487,31.032 2.407,32.103 2.407,33.419 C2.407,34.736 3.487,35.807 4.815,35.807 C6.141,35.807 7.222,34.736 7.222,33.419 C7.222,32.103 6.141,31.032 4.815,31.032 ZM12.037,64.451 L9.630,64.451 L9.630,62.064 L12.037,62.064 L12.037,59.677 L9.630,59.677 L9.630,57.290 L12.037,57.290 L12.037,54.903 L9.630,54.903 L9.630,52.516 L12.037,52.516 L12.037,49.018 C7.295,49.609 3.611,53.624 3.611,58.484 C3.611,63.344 7.295,67.359 12.037,67.950 L12.037,64.451 ZM26.481,71.613 L38.519,71.613 L38.519,66.839 L26.481,66.839 L26.481,71.613 ZM50.556,46.548 L14.444,46.548 L14.444,71.613 L24.074,71.613 L24.074,64.451 L40.926,64.451 L40.926,71.613 L50.556,71.613 L50.556,46.548 ZM52.963,49.018 L52.963,52.516 L55.370,52.516 L55.370,54.903 L52.963,54.903 L52.963,57.290 L55.370,57.290 L55.370,59.677 L52.963,59.677 L52.963,62.064 L55.370,62.064 L55.370,64.451 L52.963,64.451 L52.963,67.950 C57.706,67.359 61.389,63.344 61.389,58.484 C61.389,53.624 57.706,49.609 52.963,49.018 ZM58.950,48.935 C59.876,49.623 60.696,50.436 61.389,51.354 L61.389,38.024 C61.001,38.124 60.603,38.194 60.185,38.194 C59.768,38.194 59.368,38.124 58.982,38.024 L58.982,48.935 L58.950,48.935 ZM60.185,31.032 C58.857,31.032 57.778,32.103 57.778,33.419 C57.778,34.736 58.857,35.807 60.185,35.807 C61.512,35.807 62.593,34.736 62.593,33.419 C62.593,32.103 61.512,31.032 60.185,31.032 ZM36.111,57.290 C36.111,54.000 38.811,51.323 42.130,51.323 C45.448,51.323 48.148,54.000 48.148,57.290 C48.148,60.581 45.448,63.258 42.130,63.258 C38.811,63.258 36.111,60.581 36.111,57.290 ZM42.130,60.871 C44.121,60.871 45.741,59.264 45.741,57.290 C45.741,55.316 44.121,53.710 42.130,53.710 C40.139,53.710 38.519,55.316 38.519,57.290 C38.519,59.264 40.139,60.871 42.130,60.871 ZM22.870,63.258 C19.552,63.258 16.852,60.581 16.852,57.290 C16.852,54.000 19.552,51.323 22.870,51.323 C26.189,51.323 28.889,54.000 28.889,57.290 C28.889,60.581 26.189,63.258 22.870,63.258 ZM22.870,53.710 C20.879,53.710 19.259,55.316 19.259,57.290 C19.259,59.264 20.879,60.871 22.870,60.871 C24.861,60.871 26.481,59.264 26.481,57.290 C26.481,55.316 24.861,53.710 22.870,53.710 ZM48.148,19.097 L52.963,19.097 L52.963,21.484 L48.148,21.484 L48.148,19.097 ZM45.452,11.500 L49.622,9.114 L50.825,11.181 L46.655,13.568 L45.452,11.500 ZM39.283,6.256 L41.690,2.121 L43.775,3.314 L41.368,7.449 L39.283,6.256 ZM31.296,0.000 L33.704,0.000 L33.704,4.774 L31.296,4.774 L31.296,0.000 ZM21.226,3.316 L23.311,2.122 L25.718,6.257 L23.633,7.450 L21.226,3.316 ZM14.176,11.178 L15.379,9.110 L19.549,11.497 L18.345,13.565 L14.176,11.178 ZM12.037,19.097 L16.852,19.097 L16.852,21.484 L12.037,21.484 L12.037,19.097 ZM14.177,29.402 L18.347,27.015 L19.551,29.082 L15.381,31.469 L14.177,29.402 ZM50.821,29.400 L49.618,31.468 L45.448,29.081 L46.652,27.013 L50.821,29.400 ZM19.259,20.290 C19.259,13.052 25.200,7.161 32.500,7.161 C39.800,7.161 45.741,13.052 45.741,20.290 C45.741,23.670 44.461,26.848 42.130,29.294 L42.130,29.839 L44.537,29.839 L44.537,32.226 L42.130,32.226 L42.130,34.613 L44.537,34.613 L44.537,37.000 L42.130,37.000 L42.130,41.774 L22.870,41.774 L22.870,37.000 L20.463,37.000 L20.463,34.613 L22.870,34.613 L22.870,32.226 L20.463,32.226 L20.463,29.839 L22.870,29.839 L22.870,29.294 C20.538,26.848 19.259,23.670 19.259,20.290 ZM25.278,39.387 L39.722,39.387 L39.722,37.000 L25.278,37.000 L25.278,39.387 ZM25.278,34.613 L39.722,34.613 L39.722,32.226 L25.278,32.226 L25.278,34.613 ZM24.917,27.955 L25.278,28.306 L25.278,29.839 L31.296,29.839 L31.296,24.895 C29.225,24.361 27.685,22.509 27.685,20.290 C27.685,17.657 29.845,15.516 32.500,15.516 C35.155,15.516 37.315,17.657 37.315,20.290 C37.315,22.509 35.774,24.361 33.704,24.895 L33.704,29.839 L39.722,29.839 L39.722,28.306 L40.083,27.955 C42.179,25.917 43.333,23.194 43.333,20.290 C43.333,14.367 38.474,9.548 32.500,9.548 C26.526,9.548 21.667,14.367 21.667,20.290 C21.667,23.194 22.821,25.917 24.917,27.955 ZM32.500,22.677 C33.826,22.677 34.907,21.607 34.907,20.290 C34.907,18.974 33.826,17.903 32.500,17.903 C31.172,17.903 30.093,18.974 30.093,20.290 C30.093,21.607 31.172,22.677 32.500,22.677 Z" class="cls-1"/>
</svg>
