<svg xmlns="http://www.w3.org/2000/svg" xmlns:xlink="http://www.w3.org/1999/xlink" preserveAspectRatio="xMidYMid" width="52" height="52" viewBox="0 0 52 52">
  <defs>
    <style>
      .cls-1 {
        fill: #ffc857;
        fill-rule: evenodd;
      }
    </style>
  </defs>
  <path d="M26.000,52.000 C11.700,52.000 0.000,40.301 0.000,26.000 C0.000,11.700 11.700,-0.000 26.000,-0.000 C40.301,-0.000 52.000,11.700 52.000,26.000 C52.000,40.301 40.301,52.000 26.000,52.000 ZM26.000,3.250 C13.325,3.250 3.250,13.325 3.250,26.000 C3.250,38.676 13.325,48.750 26.000,48.750 C38.676,48.750 48.750,38.676 48.750,26.000 C48.750,13.325 38.676,3.250 26.000,3.250 ZM26.000,42.901 C19.500,42.901 13.651,39.000 11.050,32.824 L13.974,31.526 C15.925,36.401 20.800,39.324 26.000,39.324 C31.199,39.324 36.074,36.074 38.026,31.526 L40.949,32.824 C38.349,39.324 32.500,42.901 26.000,42.901 ZM32.500,22.750 C30.707,22.750 29.250,21.293 29.250,19.500 C29.250,17.707 30.707,16.250 32.500,16.250 C34.293,16.250 35.750,17.707 35.750,19.500 C35.750,21.293 34.293,22.750 32.500,22.750 ZM19.500,22.750 C17.707,22.750 16.250,21.293 16.250,19.500 C16.250,17.707 17.707,16.250 19.500,16.250 C21.293,16.250 22.750,17.707 22.750,19.500 C22.750,21.293 21.293,22.750 19.500,22.750 Z" class="cls-1"/>
</svg>
